<svg version="1.1" id="Layer_1" xmlns="http://www.w3.org/2000/svg" xmlns:xlink="http://www.w3.org/1999/xlink" x="0px" y="0px"
	 width="100%" viewBox="0 0 1024 1024" enable-background="new 0 0 1024 1024" xml:space="preserve">
<path fill="#000000" opacity="1.000000" stroke="none" 
	d="
M191.989136,544.669556 
	C187.601685,485.392578 197.434998,429.114563 225.170959,376.958832 
	C272.868225,287.267242 346.681244,231.232300 446.217834,209.659729 
	C470.547852,204.386688 495.265045,201.785065 520.095703,202.902054 
	C638.855286,208.244354 731.367920,259.379211 793.262268,362.076080 
	C814.621887,397.516479 827.375732,436.439911 832.339478,477.608734 
	C843.741333,572.175415 817.898010,655.736938 755.772888,727.572266 
	C709.602234,780.959290 650.969910,814.157715 582.089417,829.328552 
	C558.765076,834.465698 535.134155,837.201355 511.280731,837.031616 
	C465.221375,836.703918 421.048492,827.144043 379.229889,807.761963 
	C300.885437,771.450806 245.083115,713.371521 212.560867,633.274536 
	C201.539658,606.131104 194.853577,577.855103 192.587677,548.589905 
	C192.497940,547.430908 192.234055,546.285339 191.989136,544.669556 
M812.196045,546.880127 
	C812.681274,538.855896 813.166443,530.831665 813.741577,521.321228 
	C795.808350,531.064270 778.912964,535.300232 761.797424,522.031250 
	C761.539917,524.058167 761.346008,524.857056 761.350464,525.654968 
	C761.485962,550.237183 755.035706,573.062683 742.542419,594.117249 
	C736.111450,604.955078 732.389893,616.487000 731.440247,628.977051 
	C730.801270,637.380188 725.981567,642.550720 718.285278,644.709534 
	C704.806091,648.490540 691.552002,647.258301 678.938721,641.111023 
	C672.499573,637.972717 670.736267,631.552612 674.026489,624.676270 
	C677.108459,625.394409 677.597229,629.410828 682.067566,630.392761 
	C676.085815,624.858826 673.693115,618.998779 674.949768,611.923035 
	C676.111877,605.379150 677.474121,598.849243 678.189636,592.252563 
	C679.422852,580.883179 679.141907,569.539795 673.755859,559.092590 
	C671.070068,553.882935 670.196655,548.436646 669.693237,542.781189 
	C668.427002,528.553528 673.368774,516.407776 681.854004,505.312103 
	C683.816711,502.745544 685.390930,503.626831 687.317993,504.859192 
	C695.471375,510.073425 704.558167,511.601196 714.028320,511.672668 
	C722.210022,511.734406 730.254272,510.257080 738.351562,509.443665 
	C746.559753,508.619080 754.963562,507.679565 762.786987,505.661346 
	C774.246704,502.705048 784.614014,502.734619 794.956238,508.428192 
	C798.748779,510.516022 802.591064,512.527283 806.502197,514.380249 
	C808.538269,515.344849 810.709656,516.514893 813.518799,514.933838 
	C813.359619,506.454163 812.679260,497.870697 811.858337,489.271820 
	C807.687012,445.575684 794.333984,404.754791 771.090576,367.699158 
	C713.205261,275.415894 628.059387,229.750244 520.417603,224.486008 
	C482.101532,222.612122 444.741699,229.268539 408.698975,242.449982 
	C355.010834,262.084656 309.800690,293.786560 274.758575,339.134918 
	C239.706818,384.495789 218.905334,435.702942 214.154984,493.098206 
	C211.934967,519.921082 212.232712,546.739319 217.591187,573.147461 
	C232.541122,646.825134 269.934235,706.948486 329.337616,752.878174 
	C379.069916,791.330444 435.818970,812.044556 498.607117,815.532776 
	C521.590942,816.809631 544.501038,814.996948 567.179810,810.740051 
	C634.981140,798.013489 692.534668,766.644714 738.285217,714.927063 
	C780.510132,667.194885 805.929626,611.653503 812.196045,546.880127 
M747.762390,541.378845 
	C747.505432,540.543823 748.384521,539.378967 746.745239,538.686096 
	C743.102722,544.049744 738.413452,548.531494 733.832397,553.116272 
	C732.030579,554.919678 730.940491,557.169556 730.152039,559.563049 
	C729.539124,561.423401 728.238525,563.603516 730.008728,565.147705 
	C731.919250,566.814209 734.175415,565.460022 736.017273,564.392151 
	C744.564514,559.436646 747.408508,551.417725 747.762390,541.378845 
M710.803711,526.556946 
	C713.748840,525.717102 717.093384,525.356506 717.496643,521.361450 
	C715.957214,519.906921 714.455383,520.576904 713.037292,520.795837 
	C708.490540,521.497925 704.098633,520.781738 699.762451,519.467041 
	C697.943054,518.915405 695.859680,517.364563 694.732239,520.261108 
	C693.517456,523.381714 695.960449,524.506409 698.147888,525.270752 
	C701.951111,526.599792 705.945435,526.899597 710.803711,526.556946 
M696.576660,541.279236 
	C704.706726,542.553345 709.412048,540.808594 711.852295,535.016602 
	C704.130188,536.712891 697.171936,535.703857 691.244202,530.216431 
	C690.077576,535.622681 690.962646,537.461548 696.576660,541.279236 
M708.450806,634.901123 
	C713.382874,633.163757 717.599365,630.773376 718.488708,624.003845 
	C713.713562,625.991028 709.762329,627.567200 705.873413,629.284485 
	C704.116577,630.060364 701.647156,630.745667 702.395081,633.335083 
	C703.175903,636.038330 705.514709,635.830322 708.450806,634.901123 
z"/>
<path fill="#000000" opacity="1.000000" stroke="none" 
	d="
M360.644043,545.672974 
	C362.558685,542.130188 364.328857,538.920227 365.985565,535.652649 
	C366.844940,533.957703 367.509491,532.117371 365.159668,530.974548 
	C363.035736,529.941528 362.030273,531.503357 361.283936,533.000977 
	C353.297729,549.026184 341.820770,562.402710 329.329132,574.974487 
	C321.787109,582.565002 320.827789,592.576660 319.607300,602.171265 
	C317.060883,622.188538 319.016571,642.000610 324.415802,661.474243 
	C326.971130,670.690796 331.828094,678.508789 338.147949,685.549438 
	C340.345215,687.997314 342.383087,690.588196 345.167023,693.919373 
	C335.293030,696.814148 326.491730,700.194275 316.785553,699.015076 
	C314.246307,698.706543 312.516541,697.127380 311.754242,694.705322 
	C309.662048,688.057678 305.600250,683.036865 299.748566,679.276733 
	C296.861359,677.421448 295.337830,674.510437 296.420166,671.069092 
	C301.487762,654.956909 297.428619,639.403625 293.495575,623.917786 
	C289.455170,608.009216 287.233002,591.965942 287.584778,575.522339 
	C287.782715,566.268250 290.516937,557.490051 291.970673,548.485779 
	C296.982422,517.443359 295.926270,486.855957 287.234802,456.550507 
	C282.900665,441.438141 281.056000,425.927643 280.809875,410.209412 
	C280.739502,405.715424 282.399506,401.333527 281.420593,395.935394 
	C277.268646,402.281342 274.569885,408.548950 272.138824,414.940674 
	C265.388214,432.689453 265.896881,450.764801 269.719482,469.004761 
	C275.026245,494.326782 277.980713,519.874023 277.435242,545.806641 
	C277.105865,561.466125 277.313904,577.136536 277.232544,592.801758 
	C277.164459,605.913635 279.151215,618.604492 283.933136,630.905762 
	C288.203796,641.891663 286.774567,652.820190 282.294952,663.471863 
	C281.728668,664.818359 281.246002,666.305420 279.689423,667.035522 
	C277.949707,666.709900 277.926361,665.164124 277.807831,663.964661 
	C277.152039,657.329346 274.162842,651.850891 269.403076,647.390991 
	C255.081848,633.971924 254.424133,617.824280 261.207825,601.082764 
	C265.687683,590.026855 267.971069,579.087097 267.841827,567.163818 
	C267.585327,543.499329 267.078918,519.886841 262.619537,496.576355 
	C260.652618,486.294830 257.361176,476.248779 255.697235,465.930359 
	C248.745346,422.820526 260.225128,386.131378 294.796844,358.055267 
	C306.755280,348.343719 318.390442,338.476166 326.096771,324.800232 
	C327.563385,322.197571 340.017639,318.855133 342.715149,319.966339 
	C344.335815,320.633881 344.219452,321.999237 344.306702,323.295929 
	C344.954498,332.925262 345.732117,342.548920 346.184601,352.187714 
	C347.324280,376.464966 348.176208,400.756226 349.404816,425.028656 
	C350.540436,447.463745 351.819916,469.895508 353.411011,492.302124 
	C354.436340,506.741180 365.740051,520.006592 381.988922,519.970703 
	C425.978577,519.873535 469.974731,520.333069 513.958801,521.109558 
	C534.952759,521.480164 555.941833,521.654846 576.934570,521.687439 
	C595.260803,521.715881 607.848755,509.886139 608.838684,491.646362 
	C609.590637,477.790375 607.360229,464.077179 606.366150,450.308990 
	C605.300171,435.544586 603.857300,420.807770 602.726685,406.047577 
	C601.075134,384.486755 599.528992,362.917725 597.993896,341.348175 
	C597.462402,333.879211 597.181763,326.392029 596.617188,318.925934 
	C596.376404,315.742554 597.439514,313.868347 600.630798,313.147247 
	C602.735474,312.671692 604.955994,312.237000 606.814453,311.218170 
	C621.142395,303.363342 634.587036,307.852631 647.829285,314.117279 
	C653.719116,316.903656 658.415649,320.892395 659.714417,327.939423 
	C660.147644,330.289764 661.627258,332.560394 663.015442,334.604706 
	C687.270874,370.325104 708.809143,407.760406 732.142517,444.061737 
	C732.734741,444.983002 733.715515,445.874756 732.919006,447.549652 
	C716.578857,444.562286 701.587097,447.074188 689.941956,460.137970 
	C683.567261,455.537323 681.262085,443.921967 684.855713,435.322632 
	C686.140259,432.248871 687.617004,429.256775 688.258606,425.961426 
	C689.002502,422.140808 687.344055,420.611511 683.582458,421.612915 
	C683.103088,421.740479 682.614014,421.913269 682.194275,422.170807 
	C664.718994,432.893646 649.286072,453.885010 661.216553,477.340851 
	C663.228271,481.295807 665.527527,485.104492 668.240356,489.958435 
	C653.920776,486.644531 644.474182,494.647278 634.801514,502.004333 
	C630.309448,505.420929 625.042236,506.817505 619.619751,507.767975 
	C623.645874,522.140930 634.788269,528.916992 649.493286,526.299988 
	C654.217651,525.459229 658.955933,524.696167 663.962402,523.851257 
	C665.326050,529.291931 663.124817,534.260193 663.234985,539.339172 
	C663.483337,550.796265 660.084595,555.269043 649.135742,558.915466 
	C642.774780,561.033936 636.101807,561.460571 629.509216,562.300415 
	C626.353394,562.702454 624.677734,561.755920 624.255737,558.173340 
	C623.765442,554.010864 623.577332,549.862976 623.657898,545.711182 
	C623.745422,541.200195 621.951904,539.208313 617.098511,540.145508 
	C616.607361,547.400879 617.809753,554.646301 618.571289,561.822876 
	C620.295227,578.069336 620.536011,594.368042 621.289673,610.649414 
	C622.081787,627.759033 622.569214,644.888489 625.277649,661.846863 
	C626.357971,668.611206 628.155457,675.165955 630.905579,681.458008 
	C631.760071,683.413330 633.056396,685.243408 632.991455,688.098877 
	C626.854736,690.286377 620.332703,690.886719 613.748108,691.042847 
	C613.028625,691.059875 611.713257,690.451111 611.650146,689.997009 
	C610.564392,682.181274 602.305542,676.673096 607.273865,666.450745 
	C613.194336,654.269348 614.826721,640.328064 612.701904,626.485718 
	C611.876099,621.105652 612.590637,606.654236 614.269714,601.234985 
	C620.292908,581.795044 608.090271,563.711304 588.038818,562.601257 
	C585.297668,562.449463 584.490479,561.443542 584.659058,559.011719 
	C584.938049,554.985840 584.287537,551.030945 583.643738,547.087524 
	C582.310791,538.921631 577.997131,535.333496 569.741577,535.247742 
	C556.091980,535.105957 543.091003,539.047180 529.928162,541.749023 
	C503.404205,547.193542 476.732269,550.582092 449.611847,549.262878 
	C433.783905,548.492981 418.531860,545.250000 404.777649,536.990540 
	C393.219849,530.050110 390.865173,536.060608 388.455139,545.328674 
	C385.071106,558.342346 386.701569,571.423096 388.530792,584.470825 
	C389.206177,589.288391 387.216919,590.844727 382.686218,588.991455 
	C379.378784,587.638489 377.469513,584.875732 376.219849,581.711792 
	C375.090179,578.851685 373.520050,578.128174 370.428345,578.935852 
	C365.457062,580.234619 360.336792,580.994507 355.253937,581.825806 
	C350.579834,582.590210 349.506897,584.999451 351.367035,589.193237 
	C352.104553,590.855835 352.602936,592.651978 352.987671,594.435364 
	C353.329010,596.017700 353.860016,597.893982 351.997955,598.910095 
	C350.402313,599.780701 348.762817,599.266907 347.290314,598.286377 
	C343.977356,596.080444 341.937500,592.831543 340.215363,589.389587 
	C339.092957,587.146362 338.023956,585.353088 334.978668,586.222534 
	C333.376160,586.679993 332.114288,585.736389 331.338684,584.232849 
	C330.398224,582.409912 331.225342,581.086060 332.430511,579.770630 
	C338.056976,573.629395 343.684113,567.488281 349.252411,561.294434 
	C353.497894,556.571960 357.036896,551.318665 360.644043,545.672974 
z"/>
<path fill="#000000" opacity="1.000000" stroke="none" 
	d="
M438.947693,664.096375 
	C437.785217,662.508911 436.822449,661.202759 435.587616,659.527405 
	C433.737732,662.032471 433.519592,664.455383 433.287445,666.850769 
	C432.928528,670.553833 430.745026,671.620178 427.382050,671.050781 
	C418.012634,669.464539 415.785980,665.804016 418.904633,656.882202 
	C420.869537,651.261047 423.835419,646.458435 429.253693,643.313904 
	C434.145233,640.474915 438.643158,637.002441 442.929169,633.273193 
	C450.097534,627.036011 455.826385,619.855103 457.783356,610.612427 
	C459.813690,610.067139 460.931793,610.928162 461.973145,611.661255 
	C465.143585,613.893127 468.144409,614.048889 471.722015,612.211060 
	C477.979462,608.996643 484.847992,609.946960 491.328613,611.071106 
	C499.112152,612.421082 506.133209,611.396240 513.003540,607.686523 
	C524.579590,601.435974 536.248474,595.359558 548.824707,591.280151 
	C549.299683,591.126099 549.757812,590.878601 550.243530,590.805664 
	C559.606995,589.397949 566.779907,586.040833 572.248779,576.920593 
	C578.293274,566.840393 592.168701,565.680420 600.909973,572.111877 
	C610.271912,579.000000 613.258728,594.596619 607.024658,604.082031 
	C606.660217,604.636475 606.337585,605.401306 605.805298,605.634644 
	C599.678284,608.321350 601.264221,612.212036 602.985107,617.265564 
	C608.848328,634.483093 607.708252,651.050598 596.049011,665.874939 
	C593.770630,668.771912 593.178040,671.409790 594.349182,675.025696 
	C597.946106,686.131592 597.059204,688.460266 587.657104,695.184326 
	C579.088684,701.312195 571.177979,708.270203 564.123718,716.004700 
	C559.734009,720.817749 554.348450,723.827515 548.951477,726.754150 
	C543.027771,729.966553 536.306519,727.901733 528.989502,728.302124 
	C531.260559,722.385254 534.398438,718.216492 538.183716,714.518250 
	C543.912415,708.921387 550.306763,704.105164 556.583801,699.154053 
	C558.674072,697.505188 560.763611,695.835327 562.690613,694.003723 
	C567.897949,689.054199 568.563660,685.918396 565.730713,679.384827 
	C562.942139,672.953796 559.616699,666.800598 555.394287,661.183533 
	C553.727722,658.966553 551.934082,656.798218 548.755981,655.467224 
	C548.140442,660.268616 551.128235,663.348267 552.519043,666.862183 
	C555.394958,674.127869 555.577209,674.098633 548.856873,678.308533 
	C539.114380,684.411743 528.095825,686.072449 516.972961,687.302063 
	C511.029449,687.959106 505.077576,688.542297 499.126190,689.125427 
	C495.893036,689.442261 493.481598,690.906494 491.997864,693.860596 
	C488.491241,700.842102 482.606689,704.660156 475.384064,707.269104 
	C466.654663,710.422180 457.733582,713.582520 452.110931,721.845886 
	C451.846466,722.234619 451.259277,722.786377 450.959717,722.711609 
	C445.606720,721.376099 443.355957,725.432190 439.729858,728.044250 
	C435.253998,731.268616 429.011292,729.389771 423.877533,727.404358 
	C420.809570,726.217957 423.140442,723.937866 424.272949,722.600159 
	C430.644836,715.073364 437.565430,708.094788 446.019073,702.873962 
	C450.547455,700.077332 455.147522,697.355225 459.911316,694.995300 
	C463.378174,693.277832 464.410522,690.873779 463.593781,687.322083 
	C462.589905,682.956543 461.615570,678.584229 460.618378,674.170166 
	C459.657715,675.679565 460.150940,678.224915 457.998505,678.913879 
	C456.054993,679.535950 454.544922,678.013306 452.997589,677.130676 
	C447.413788,673.945374 442.813629,669.661011 438.947693,664.096375 
M578.888733,590.703613 
	C583.513733,592.054321 587.220337,595.272400 591.636902,597.490601 
	C594.212769,593.022095 593.108948,589.097351 591.373779,585.281128 
	C590.069153,582.411682 587.671631,580.840332 584.515991,581.587585 
	C580.887024,582.446777 577.579895,584.159302 576.005005,587.837219 
	C575.193848,589.731628 577.266052,589.755005 578.888733,590.703613 
z"/>
<path fill="#000000" opacity="1.000000" stroke="none" 
	d="
M564.088867,386.751556 
	C567.064941,389.821350 568.914795,389.290497 569.707886,385.454529 
	C570.264832,382.760590 572.059875,381.354065 574.591553,381.269836 
	C577.012024,381.189301 578.531677,382.856140 579.359924,385.044159 
	C580.927979,389.186249 581.164307,393.320770 577.884338,396.715515 
	C574.864502,399.841125 571.020630,400.797241 566.886047,399.072083 
	C559.093140,395.820526 553.088928,390.998718 552.318909,381.774445 
	C551.519775,372.201782 550.668884,362.633453 549.841919,353.077362 
	C552.521790,352.345398 553.435120,354.382965 554.810120,355.352417 
	C561.423035,360.014832 568.547363,360.337708 575.668274,357.248230 
	C581.983337,354.508392 584.003967,348.526489 582.467834,339.653748 
	C581.312378,332.979401 576.091309,327.385773 570.302979,326.620819 
	C564.104736,325.801727 558.101196,333.761627 560.473999,339.634827 
	C561.042053,341.040863 562.055542,341.766876 563.545471,341.694092 
	C564.896729,341.628052 565.700134,340.820496 565.807434,339.480164 
	C566.055664,336.377594 566.931946,333.511719 570.705444,334.021729 
	C574.252869,334.501190 575.884033,337.319244 576.533691,340.691498 
	C577.816956,347.352844 571.451111,353.354919 564.432739,351.959534 
	C555.921570,350.267365 551.246643,344.358368 549.053101,336.563019 
	C547.900574,332.467285 548.125732,327.986145 547.705872,323.681244 
	C547.429688,320.848572 548.543518,319.172180 551.517822,319.097748 
	C563.009338,318.810242 574.450195,318.003052 585.803223,316.094421 
	C588.816833,315.587769 588.895203,318.047607 589.059387,319.993713 
	C589.856506,329.439758 590.745056,338.883667 591.256958,348.346954 
	C592.343933,368.441589 594.267639,388.465302 595.963928,408.510101 
	C597.211975,423.257477 598.188232,438.027679 599.342651,452.783264 
	C600.146484,463.057556 600.713196,473.365723 601.979675,483.585114 
	C604.103210,500.720490 593.472412,514.160522 576.241028,514.277771 
	C536.267395,514.549927 496.292755,514.613159 456.318481,513.551270 
	C433.168213,512.936340 409.992432,513.304443 386.828491,513.171204 
	C370.636047,513.078064 361.977081,504.948456 360.609283,488.773834 
	C358.925293,468.859619 358.369995,448.893188 357.589203,428.931946 
	C356.587341,403.316925 355.152161,377.719025 353.955139,352.111359 
	C353.488800,342.135193 353.255981,332.147522 352.727509,322.175110 
	C352.508759,318.046906 354.107697,316.511536 358.215942,316.635040 
	C366.874908,316.895325 375.543365,316.939178 384.207092,316.897858 
	C388.489990,316.877441 390.688385,318.252441 390.369507,323.015411 
	C390.036377,327.991425 390.458710,333.013092 390.309479,338.007629 
	C390.136658,343.791809 385.157837,348.861511 378.786224,350.061920 
	C374.096436,350.945496 368.163788,347.841125 365.894745,343.316254 
	C363.997345,339.532562 365.196564,335.562561 368.994690,333.581085 
	C373.013916,331.484283 374.809418,334.008972 376.094818,337.272949 
	C376.618774,338.603363 377.209320,339.846313 378.905243,339.429413 
	C380.757263,338.974182 380.853119,337.391296 380.849731,335.836884 
	C380.835358,329.253326 374.370544,324.941833 368.285919,327.457886 
	C360.899719,330.512207 356.774872,338.649750 359.012146,345.753204 
	C361.769714,354.508575 370.218292,359.238861 379.532410,357.402466 
	C383.833282,356.554535 387.391693,354.044739 391.779449,352.008392 
	C393.022552,361.153107 393.281250,369.877655 393.295837,378.620819 
	C393.302795,382.784088 393.480225,386.957794 392.071930,390.985413 
	C390.104218,396.612946 385.131073,400.370850 379.792999,400.329498 
	C375.838959,400.298889 373.140656,398.210205 371.408051,394.963409 
	C369.603302,391.581390 369.197296,387.973358 371.342499,384.487823 
	C372.566498,382.499084 374.402679,381.434479 376.755646,381.464142 
	C379.313965,381.496368 379.977448,383.358154 380.495239,385.417084 
	C380.729462,386.348511 381.273010,387.202148 381.793304,388.349121 
	C385.068878,387.233063 385.859070,385.156616 385.052979,382.175110 
	C383.711395,377.212677 379.709473,374.127838 374.824371,374.323547 
	C369.941010,374.519196 365.259399,378.463043 364.425354,383.565826 
	C363.752808,387.680603 363.800476,391.897888 364.966827,395.951508 
	C367.828369,405.896576 378.478912,409.708435 387.974579,404.377563 
	C390.073273,403.199341 391.565491,400.855408 394.961731,400.802185 
	C395.824066,406.217407 395.386383,411.701752 395.950562,417.070831 
	C396.661285,423.834595 396.502777,430.727356 396.239166,437.545929 
	C395.933502,445.453644 386.085052,451.637512 378.627563,448.844208 
	C375.018677,447.492493 373.027466,444.751129 372.727570,440.899414 
	C372.416504,436.903748 373.901001,433.536621 377.309662,431.531555 
	C380.845398,429.451721 382.940399,431.565979 384.045654,434.871307 
	C384.551971,436.385376 384.266357,438.581635 386.777985,438.131836 
	C388.912231,437.749603 389.576782,435.978455 389.632965,433.986481 
	C389.740570,430.172089 388.346924,427.026917 384.900482,425.279358 
	C381.121338,423.363098 377.104919,423.249634 373.460449,425.611786 
	C367.472290,429.493042 364.014313,438.497070 365.592896,445.441284 
	C367.441162,453.571808 376.059326,458.338745 385.247955,456.297974 
	C388.690033,455.533508 391.933624,454.249603 394.938843,452.401337 
	C396.967194,451.153900 398.297760,451.601288 399.213898,453.831207 
	C403.758026,464.891937 404.676544,476.409546 402.976471,488.080597 
	C402.193787,493.453613 398.029602,496.300446 392.862061,497.117249 
	C387.436951,497.974731 382.466278,496.619537 379.088928,492.003662 
	C376.945892,489.074646 377.020050,485.709747 379.153503,482.652557 
	C380.594574,480.587555 382.772583,480.331177 384.979706,481.049591 
	C386.895721,481.673218 388.044983,482.981293 387.555359,485.242584 
	C387.269409,486.563446 387.034912,488.015137 388.749054,488.590576 
	C390.519745,489.184967 392.004333,488.554108 393.233246,487.209778 
	C395.749756,484.456909 395.223297,478.909485 392.145142,475.829895 
	C387.169800,470.852112 377.712280,471.687134 373.627838,477.464844 
	C369.543518,483.242401 370.405029,494.220612 375.340393,499.287689 
	C385.163910,509.373383 403.482025,505.688690 408.451202,492.569855 
	C410.861298,486.207092 410.968689,479.548065 410.539215,472.856689 
	C410.467224,471.735474 410.423309,470.612488 410.355774,469.280426 
	C414.688171,468.207825 418.294159,470.821136 422.246399,470.708923 
	C428.906647,470.519745 435.580139,470.809998 442.241455,470.639496 
	C445.741516,470.549866 447.794495,472.037750 449.287720,475.054779 
	C455.194550,486.989105 451.178741,497.648499 439.841187,499.874390 
	C432.831512,501.250610 425.714020,495.940521 425.693848,489.341492 
	C425.684052,486.139008 426.963715,483.772736 430.187042,483.001648 
	C433.323578,482.251312 434.115051,484.519409 434.806854,486.927673 
	C435.288544,488.604584 436.278229,490.189514 438.355743,489.587799 
	C440.617706,488.932617 441.253265,486.933624 441.113312,484.810394 
	C440.737183,479.102875 433.959106,474.967957 428.490051,477.034302 
	C419.685516,480.360901 417.026398,493.013794 423.519775,500.684479 
	C428.730469,506.839935 438.677948,508.800964 446.979401,505.309235 
	C455.609772,501.679138 459.502075,495.085541 458.374054,485.871429 
	C457.792938,481.124481 457.630920,476.322693 455.956299,471.640442 
	C460.552002,470.064178 464.727661,470.903442 468.824188,470.849884 
	C474.821259,470.771423 480.822479,471.037933 486.820312,470.982422 
	C493.074036,470.924530 496.824951,474.462677 498.928802,479.730530 
	C501.184021,485.377350 501.688904,491.427032 497.100037,496.149994 
	C492.701141,500.677277 486.741943,501.593140 480.850891,499.687805 
	C476.672760,498.336517 473.874359,495.078705 473.776611,490.342194 
	C473.723541,487.770508 474.330536,485.119385 477.186676,484.287842 
	C479.896820,483.498840 482.109436,485.011566 483.617035,487.126953 
	C484.818451,488.812622 485.306641,491.878265 488.125092,490.264526 
	C490.989227,488.624725 490.170319,485.434814 489.129059,483.058197 
	C487.562927,479.483612 484.636047,477.288269 480.506775,477.333435 
	C475.350281,477.389832 471.550049,479.742004 469.476257,484.490875 
	C466.887787,490.418335 468.340698,498.111420 472.635193,502.129517 
	C478.026917,507.174255 488.053497,508.563812 494.626007,505.032501 
	C504.676941,499.632355 512.392578,487.234955 504.760376,474.271179 
	C504.354828,473.582306 503.856110,472.846527 504.393951,471.803955 
	C505.643127,470.523743 507.377808,470.993256 508.983978,471.025543 
	C518.476196,471.216217 527.967712,471.440186 537.459106,471.669373 
	C542.963013,471.802246 547.133118,474.837006 549.179565,480.156097 
	C551.911194,487.255707 550.909180,494.496124 546.662537,498.343994 
	C542.955566,501.702850 536.058289,502.554230 531.143005,500.176758 
	C527.021240,498.183075 524.793762,494.865417 524.790222,490.254761 
	C524.788391,487.941864 525.624878,485.690216 528.152039,485.368561 
	C530.649536,485.050690 533.315125,485.525696 534.157654,488.569427 
	C534.711670,490.570557 535.098450,492.999725 537.790039,491.986359 
	C540.196655,491.080170 540.877380,488.663635 540.242554,486.099884 
	C539.228943,482.006927 536.699524,479.233521 532.565002,478.446808 
	C527.533203,477.489288 523.266357,479.080963 520.492859,483.548065 
	C517.472717,488.412598 517.033203,493.681274 519.549316,498.811493 
	C522.596985,505.025452 528.080566,508.038208 534.792664,508.607452 
	C541.786072,509.200562 546.389954,507.084473 555.367065,499.662567 
	C560.541199,505.807770 567.512146,507.447266 575.379883,506.714722 
	C589.551025,505.395294 598.333740,492.370117 593.520203,479.565033 
	C591.068298,473.042297 582.988892,469.401703 576.677307,471.975616 
	C571.529785,474.074829 568.358032,482.670837 570.594971,488.440582 
	C571.293701,490.242737 572.590820,491.122559 574.493652,490.731293 
	C576.338074,490.351990 577.524597,489.161926 577.254395,487.191864 
	C576.678711,482.993835 576.838135,479.078369 582.306885,478.985901 
	C585.978638,478.923798 588.061646,483.577820 587.237183,488.940369 
	C586.258789,495.304962 580.755798,500.038147 573.958008,500.362000 
	C566.136414,500.734680 560.668823,497.217499 559.114075,489.975830 
	C557.662048,483.212524 555.572632,476.815948 551.797913,471.005280 
	C551.056091,469.863312 550.270203,468.562805 550.987305,467.277405 
	C553.910156,462.038086 553.609009,456.006165 555.141907,450.423737 
	C557.639343,450.072845 558.785217,452.035614 560.329163,453.124146 
	C568.347839,458.777771 580.062622,458.311768 586.731689,451.991547 
	C591.104309,447.847687 592.376282,439.058136 589.494446,432.900055 
	C587.010925,427.593079 581.874268,424.672119 576.123962,425.296967 
	C571.547791,425.794189 566.461060,431.358673 566.358948,435.900391 
	C566.309204,438.113251 567.353638,439.351715 569.470276,439.710510 
	C571.552673,440.063507 572.411011,439.010742 572.853333,437.036163 
	C573.466125,434.300385 574.837646,431.822784 578.052368,431.867096 
	C581.427246,431.913635 582.855164,434.623230 583.770508,437.364990 
	C585.235535,441.753448 584.109680,445.641876 580.629395,448.657227 
	C577.197571,451.630554 570.297913,451.817841 566.015686,449.117645 
	C562.246948,446.741211 559.298767,443.414001 557.813965,439.289856 
	C553.291321,426.728210 554.527222,413.517456 553.006287,399.491150 
	C558.079590,402.368805 561.605103,405.381561 566.320496,406.221283 
	C575.194885,407.801666 582.809998,404.427002 585.866150,397.078888 
	C588.959717,389.640808 585.819153,379.420532 578.989380,374.996002 
	C575.492859,372.730835 571.717102,372.328644 568.186340,374.704315 
	C564.043457,377.491882 562.468018,381.471710 564.088867,386.751556 
z"/>
<path fill="#000000" opacity="1.000000" stroke="none" 
	d="
M527.655762,368.481567 
	C528.939270,384.688843 530.137756,400.439209 531.321472,416.190643 
	C531.994202,425.141632 532.543396,434.103302 533.342712,443.042786 
	C533.762146,447.733185 532.197144,449.457031 527.240173,449.427246 
	C494.749023,449.231750 462.256134,449.323761 429.763824,449.312073 
	C422.606445,449.309509 421.421875,448.468750 420.485779,441.236755 
	C419.675476,434.976624 419.257965,428.655640 418.903259,422.348297 
	C417.511292,397.595184 416.198425,372.837555 414.887482,348.079956 
	C414.438568,339.603088 414.165466,331.116150 413.642700,322.644287 
	C413.422729,319.079102 414.481079,317.555847 418.351410,317.618439 
	C427.691742,317.769409 436.977203,318.479034 446.188904,319.896423 
	C449.901611,320.467712 453.567291,321.690552 456.631683,324.211578 
	C455.596039,326.791351 453.513794,326.152283 451.865692,326.199585 
	C447.036743,326.338165 442.200684,326.225708 437.371613,326.361908 
	C435.396484,326.417603 433.379181,326.658295 431.472778,327.161957 
	C425.161835,328.829193 422.204071,332.910095 423.235840,338.247498 
	C424.209229,343.282990 428.443329,346.191803 434.566040,345.628082 
	C439.629028,345.161896 444.271729,343.340240 448.240112,340.064606 
	C451.580109,337.307648 454.833191,334.444946 458.190582,331.709869 
	C459.534424,330.615143 461.049561,328.711914 462.842560,330.791656 
	C464.555237,332.778351 462.233398,333.697906 461.206573,334.748169 
	C456.666412,339.392059 451.849640,343.771027 447.919220,348.986298 
	C445.768585,351.839935 444.135254,354.849487 444.341614,358.591736 
	C444.625977,363.748566 448.568939,368.607513 453.196106,369.404175 
	C456.855896,370.034332 461.808136,366.821289 463.665192,362.343109 
	C466.177582,356.284546 466.178009,349.662262 467.648560,343.361603 
	C468.095673,341.445953 468.095886,339.419525 469.995758,337.315186 
	C471.959534,341.243134 471.676361,345.268402 472.201447,349.027069 
	C472.874878,353.847260 473.728210,358.585266 475.940216,362.925537 
	C478.733856,368.407166 484.069122,370.663422 488.658203,368.567993 
	C494.426544,365.934174 496.739990,360.568878 494.789093,354.563812 
	C493.444763,350.425903 490.385437,347.568268 487.542938,344.539459 
	C484.579041,341.381256 481.539215,338.292633 478.633514,335.082245 
	C477.496124,333.825623 475.291290,332.368927 477.299438,330.538940 
	C479.157532,328.845703 480.729126,330.904755 481.917786,332.099670 
	C486.781433,336.988861 492.164886,341.109619 498.392426,344.113647 
	C502.335388,346.015625 506.373993,346.521301 510.458618,344.793243 
	C516.915527,342.061615 518.167419,335.759644 513.360779,330.766205 
	C510.112885,327.392090 505.942749,326.459839 501.518982,326.365295 
	C496.522400,326.258575 491.521851,326.349182 486.523376,326.310669 
	C484.759064,326.297089 482.807770,326.605530 481.841644,324.501068 
	C482.415833,322.404236 484.170624,322.144135 485.729675,321.734467 
	C502.432739,317.345428 519.443787,318.605988 536.404968,319.053772 
	C538.927551,319.120361 540.149841,320.423309 540.330444,323.154785 
	C541.943176,347.543762 543.646484,371.926849 545.378357,396.307739 
	C546.568115,413.057007 548.293030,429.773987 548.315796,446.590546 
	C548.318054,448.255280 548.361938,449.936615 548.159119,451.582214 
	C546.863892,462.092987 544.282959,464.361206 533.703918,464.336761 
	C498.712433,464.255890 463.720886,464.186859 428.729645,464.039764 
	C424.912567,464.023743 421.065125,463.754395 417.288910,463.207642 
	C411.277985,462.337402 408.172943,458.227295 406.511780,452.729828 
	C403.393280,442.409485 403.460419,431.699371 402.728333,421.103882 
	C401.363617,401.352661 400.203522,381.587189 398.992188,361.825592 
	C398.208252,349.036224 397.469147,336.244019 396.745239,323.451141 
	C396.579193,320.517395 396.422699,317.750824 400.832092,317.722107 
	C404.966217,317.695190 406.176819,319.383820 406.390625,323.381714 
	C407.856171,350.786194 409.559479,378.177979 411.179016,405.574280 
	C411.895569,417.695038 412.663300,429.813324 413.282593,441.939148 
	C413.836304,452.780243 416.755859,455.641357 427.728882,455.671143 
	C460.553955,455.760193 493.379028,455.848816 526.204102,455.921112 
	C528.368469,455.925873 530.548523,455.932343 532.694458,455.695190 
	C537.972595,455.111816 540.945740,451.285370 540.570618,446.072815 
	C538.886780,422.679474 537.345581,399.275604 535.583862,375.888275 
	C534.559814,362.293732 533.256287,348.719513 531.966736,335.146729 
	C531.795654,333.345917 532.048523,330.601501 528.989441,330.942780 
	C526.436523,331.227631 525.355042,333.340820 525.439209,335.673370 
	C525.673035,342.152740 525.811401,348.663025 526.602844,355.085266 
	C527.135010,359.402863 527.074280,363.727386 527.655762,368.481567 
M483.147400,435.646545 
	C488.062958,435.002411 493.210815,435.355804 497.599365,432.412048 
	C499.747681,430.971008 501.536438,429.104675 501.498077,426.377075 
	C501.457031,423.460571 499.231293,422.178772 496.828766,421.124664 
	C494.239166,419.988464 491.658691,418.803741 489.184357,417.440399 
	C486.804718,416.129242 484.810577,415.846405 482.310547,417.541718 
	C478.406921,420.188873 473.588837,421.287170 469.448944,419.138367 
	C462.587982,415.577240 457.234344,419.181915 451.658722,421.730133 
	C447.293884,423.724945 446.851074,428.129730 450.172821,431.607666 
	C451.860474,433.374634 454.017059,434.182556 456.318420,434.714203 
	C464.887848,436.693817 473.576141,435.442078 483.147400,435.646545 
M497.446930,410.041534 
	C505.610687,413.694641 511.559601,419.644196 515.283875,427.925812 
	C516.129395,417.984253 514.732605,408.671021 511.038574,399.843628 
	C508.010742,392.608093 503.385895,386.608154 495.577698,383.911133 
	C492.758942,382.937561 490.466705,383.004150 491.204132,387.129547 
	C491.717529,390.001678 491.316528,392.933441 489.884155,395.349518 
	C486.771423,400.599976 488.847809,404.078735 493.174438,407.082794 
	C494.400848,407.934326 495.611359,408.808716 497.446930,410.041534 
M446.499908,387.971191 
	C436.509979,395.583252 429.738434,419.369812 435.463104,428.913361 
	C437.224884,418.989471 444.840851,414.620453 451.838165,409.906921 
	C457.903046,405.821472 460.555573,401.080444 457.381744,393.953064 
	C456.797150,392.640259 456.772308,391.032166 456.691040,389.549347 
	C456.377838,383.833862 455.515930,383.315552 450.143585,385.851654 
	C449.093292,386.347473 448.112213,386.989960 446.499908,387.971191 
M465.106995,388.701141 
	C464.050964,391.971100 464.514862,395.177795 465.118713,398.495453 
	C465.771301,402.080902 467.465179,404.273773 471.101562,404.703339 
	C474.964142,405.159637 478.538330,404.563019 480.328796,400.574066 
	C481.960724,396.938232 483.097198,393.213165 481.979187,389.048035 
	C480.741394,384.436676 478.723389,380.065613 473.716919,379.647888 
	C468.617157,379.222473 466.657684,383.670532 465.106995,388.701141 
z"/>
<path fill="#000000" opacity="1.000000" stroke="none" 
	d="
M405.364014,556.425842 
	C411.897430,560.252319 418.487457,563.006836 425.254425,565.388489 
	C434.668976,568.701782 442.487274,574.064697 447.203705,583.162109 
	C448.232117,585.145752 449.854156,585.937012 451.791473,586.643127 
	C456.005615,588.179016 460.190033,589.810242 464.314575,591.571167 
	C465.853180,592.228149 467.232391,593.413208 467.103363,595.354431 
	C466.971710,597.335205 465.336945,598.539978 463.760315,598.549744 
	C454.935150,598.604675 452.366150,603.766113 452.062897,611.571716 
	C451.973511,613.871704 450.407654,616.278381 449.060638,618.336548 
	C443.742920,626.461731 436.077301,632.050171 428.045471,637.185852 
	C425.341736,638.914734 423.341064,638.425598 422.375427,635.147888 
	C419.356262,624.899902 413.210510,616.401245 407.321594,607.699097 
	C399.283875,595.821594 394.436554,582.581848 392.068115,568.464478 
	C391.303772,563.908447 392.579254,559.836731 396.387482,556.918457 
	C399.065582,554.866150 401.941742,553.798645 405.364014,556.425842 
M426.801422,579.768127 
	C425.733948,579.007751 424.758026,578.025330 423.577667,577.538696 
	C421.772369,576.794312 419.458679,575.839783 418.233246,578.039124 
	C417.132050,580.015381 418.631714,581.821045 420.178070,583.151123 
	C421.038696,583.891296 422.092773,584.435669 423.120453,584.945801 
	C424.640076,585.700012 426.467010,586.303589 427.802460,585.144104 
	C429.623566,583.562927 428.214661,581.856567 426.801422,579.768127 
z"/>
<path fill="#000000" opacity="1.000000" stroke="none" 
	d="
M750.171265,483.954163 
	C753.011353,489.009460 756.087402,493.569000 757.145203,499.463684 
	C747.955933,501.970886 738.725098,502.921295 729.582703,504.088043 
	C720.371643,505.263611 711.067444,506.292267 701.771057,504.333435 
	C696.283264,503.177094 691.459778,500.789429 686.523071,496.725128 
	C693.002014,487.938812 694.306091,474.736938 708.073120,472.815186 
	C723.402100,470.675354 738.915710,468.843140 750.171265,483.954163 
z"/>
<path fill="#000000" opacity="1.000000" stroke="none" 
	d="
M367.834320,672.227051 
	C361.531769,674.093567 355.450012,674.883545 349.306732,675.453613 
	C346.016663,675.758850 344.076965,674.708679 343.821564,671.388000 
	C343.563904,668.038025 341.731445,666.333740 338.639893,665.568237 
	C336.518768,665.043091 335.658142,663.589844 336.029388,661.434509 
	C337.610046,652.258179 335.282806,643.524536 332.467255,635.014221 
	C329.849731,627.102417 327.310150,619.183289 325.525787,611.057922 
	C323.747406,602.959900 326.908325,595.473633 328.436066,587.180847 
	C331.439606,588.789246 332.154999,591.071533 333.076721,593.053223 
	C336.036987,599.417297 339.984833,604.850647 346.502960,607.953613 
	C348.860321,609.075867 349.064972,611.051025 349.346680,613.303833 
	C351.190308,628.045776 354.048401,642.561584 360.460663,656.099243 
	C362.376465,660.143860 365.016235,663.840576 367.194977,667.768372 
	C367.908173,669.054077 369.839386,670.202515 367.834320,672.227051 
z"/>
<path fill="#000000" opacity="1.000000" stroke="none" 
	d="
M775.700928,447.026794 
	C775.862610,444.268951 775.220093,441.908173 776.308655,439.470337 
	C780.774109,439.465912 783.027344,442.663818 785.104126,445.798309 
	C792.206299,456.518005 790.377625,475.681244 781.341431,485.463806 
	C777.370544,489.762756 772.956116,493.554413 767.619019,496.148010 
	C765.056213,497.393463 763.337646,497.286346 762.376709,494.090027 
	C760.793640,488.824402 757.517151,484.356232 754.127380,478.979736 
	C767.979065,472.753845 777.231384,463.602844 775.700928,447.026794 
z"/>
<path fill="#000000" opacity="1.000000" stroke="none" 
	d="
M677.219727,439.354675 
	C674.771179,452.477966 680.257446,462.136169 689.591980,469.878754 
	C692.987183,472.695007 693.106567,474.548767 690.681152,477.946228 
	C687.421143,482.512756 684.781311,487.521973 681.429138,493.081024 
	C670.557922,484.448944 664.314453,473.556030 663.297852,460.378204 
	C662.481934,449.801880 668.007202,441.502319 676.165039,434.950256 
	C677.850952,436.317169 677.134460,437.725311 677.219727,439.354675 
z"/>
<path fill="#000000" opacity="1.000000" stroke="none" 
	d="
M676.014038,504.074982 
	C672.741821,508.817993 670.651184,514.303772 664.982666,516.242004 
	C656.137207,519.266479 647.019287,521.283386 637.643982,520.007263 
	C633.679321,519.467651 631.509949,515.903381 629.177185,511.939972 
	C637.869873,508.611847 644.294434,502.107788 652.224854,498.024445 
	C659.884827,494.080322 667.638428,495.224762 675.276184,498.533966 
	C678.410034,499.891785 677.227112,501.795563 676.014038,504.074982 
z"/>
<path fill="#000000" opacity="1.000000" stroke="none" 
	d="
M736.854492,467.176636 
	C725.758423,464.218964 715.052185,464.209534 704.519653,467.640320 
	C700.502319,468.948914 697.785156,468.177338 695.440308,464.190460 
	C702.050903,455.490295 711.582275,453.019440 721.717834,453.031769 
	C735.678467,453.048767 747.721985,457.689758 755.909119,470.184174 
	C753.063782,473.334076 750.327942,474.209534 746.788879,471.446198 
	C744.013428,469.279053 740.691284,468.069000 736.854492,467.176636 
z"/>
<path fill="#000000" opacity="1.000000" stroke="none" 
	d="
M317.718689,706.296509 
	C320.229614,703.242859 323.564545,705.087585 326.511627,704.519165 
	C332.696259,703.326172 338.963501,702.465942 344.928711,700.413147 
	C348.156036,699.302490 350.205444,700.130127 352.200714,702.711731 
	C355.420624,706.877625 358.902832,710.840881 362.287659,714.905884 
	C349.677765,724.274536 326.321533,719.736145 317.718689,706.296509 
z"/>
<path fill="#000000" opacity="1.000000" stroke="none" 
	d="
M348.644745,687.097046 
	C347.807465,685.260193 347.033691,683.786804 347.405090,681.260376 
	C355.384338,680.290649 363.526459,679.269714 371.681732,678.367493 
	C372.363831,678.291992 373.401276,678.821411 373.821960,679.398804 
	C377.497559,684.443970 381.070251,689.564148 384.659027,694.641541 
	C374.014984,702.091797 355.840240,698.114441 348.644745,687.097046 
z"/>
<path fill="#000000" opacity="1.000000" stroke="none" 
	d="
M614.512512,706.265015 
	C613.898926,705.037109 613.411560,704.157654 613.072388,703.224304 
	C611.004272,697.533752 611.398010,697.161987 617.331421,696.680786 
	C623.108398,696.212280 628.885254,695.502258 634.590576,694.493408 
	C637.307861,694.012939 638.879822,694.496704 640.277893,696.923157 
	C642.745300,701.205383 645.527405,705.306274 648.154602,709.446533 
	C638.684448,716.477173 621.321655,714.838928 614.512512,706.265015 
z"/>
</svg>